HIERARCHY
ROOT Hips
{
    OFFSET 0.000000 0.000000 0.000000
    CHANNELS 6 Xposition Yposition Zposition Zrotation Xrotation Yrotation
    JOINT Spine
    {
        OFFSET -0.000000 14.517291 0.000000
        CHANNELS 3 Zrotation Xrotation Yrotation
        JOINT Spine1
        {
            OFFSET -0.000000 37.558300 0.000000
            CHANNELS 3 Zrotation Xrotation Yrotation
            JOINT Neck
            {
                OFFSET -0.000000 37.404057 3.400369
                CHANNELS 3 Zrotation Xrotation Yrotation
                JOINT Head
                {
                    OFFSET -0.000000 24.785618 -3.540803
                    CHANNELS 3 Zrotation Xrotation Yrotation
                    End Site
                    {
                        OFFSET -0.000000 35.408028 0.000000
                    }
                }
            }
            JOINT LeftShoulder
            {
                OFFSET 6.992933 33.973492 -0.192664
                CHANNELS 3 Zrotation Xrotation Yrotation
                JOINT LeftArm
                {
                    OFFSET 21.527611 0.000000 0.000000
                    CHANNELS 3 Zrotation Xrotation Yrotation
                    JOINT LeftForeArm
                    {
                        OFFSET 56.353916 0.000000 0.000000
                        CHANNELS 3 Zrotation Xrotation Yrotation
                        JOINT LeftHand
                        {
                            OFFSET 47.774071 0.000000 0.000000
                            CHANNELS 3 Zrotation Xrotation Yrotation
                            End Site
                            {
                                OFFSET 26.556021 0.000000 0.000000
                            }
                        }
                    }
                }
            }
            JOINT RightShoulder
            {
                OFFSET -7.065357 33.973492 -0.192664
                CHANNELS 3 Zrotation Xrotation Yrotation
                JOINT RightArm
                {
                    OFFSET -21.527611 0.000000 0.000000
                    CHANNELS 3 Zrotation Xrotation Yrotation
                    JOINT RightForeArm
                    {
                        OFFSET -56.353916 0.000000 0.000000
                        CHANNELS 3 Zrotation Xrotation Yrotation
                        JOINT RightHand
                        {
                            OFFSET -47.774071 0.000000 0.000000
                            CHANNELS 3 Zrotation Xrotation Yrotation
                            End Site
                            {
                                OFFSET -26.556021 0.000000 0.000000
                            }
                        }
                    }
                }
            }
        }
    }
    JOINT LeftUpLeg
    {
        OFFSET 17.704014 0.000000 0.000000
        CHANNELS 3 Zrotation Xrotation Yrotation
        JOINT LeftLeg
        {
            OFFSET -0.000000 -81.181816 0.000000
            CHANNELS 3 Zrotation Xrotation Yrotation
            JOINT LeftFoot
            {
                OFFSET -0.000000 -62.821102 0.000000
                CHANNELS 3 Zrotation Xrotation Yrotation
                JOINT LeftToeBase
                {
                    OFFSET -0.000000 -11.507608 26.556021
                    CHANNELS 3 Zrotation Xrotation Yrotation
                    End Site
                    {
                        OFFSET -0.000000 0.000000 7.081605
                    }
                }
            }
        }
    }
    JOINT RightUpLeg
    {
        OFFSET -17.704014 0.000000 0.000000
        CHANNELS 3 Zrotation Xrotation Yrotation
        JOINT RightLeg
        {
            OFFSET -0.000000 -81.181816 0.000000
            CHANNELS 3 Zrotation Xrotation Yrotation
            JOINT RightFoot
            {
                OFFSET -0.000000 -62.821102 0.000000
                CHANNELS 3 Zrotation Xrotation Yrotation
                JOINT RightToeBase
                {
                    OFFSET -0.000000 -11.507608 26.556021
                    CHANNELS 3 Zrotation Xrotation Yrotation
                    End Site
                    {
                        OFFSET -0.000000 0.000000 7.081605
                    }
                }
            }
        }
    }
}
MOTION
Frames:    4
Frame Time:    0.008333
-14.584711    152.091537    -98.152252    1.566877    -3.746297    44.237999    -1.902553    0.196634    0.481434    -0.550525    1.995237    0.168914    -2.252804    4.960761    -20.847031    17.222183    0.013153    -19.133949    2.517911    7.811797    -13.839726    -35.034130    22.973400    -47.533653    -3.484448    -24.992481    -121.510681    -6.992157    -29.872156    -11.931281    -0.851555    11.961093    -3.630034    31.217051    13.912743    46.786911    -8.013545    3.315246    62.793629    -15.526777    4.456712    27.038580    16.797981    -3.754472    -5.819042    -18.225101    39.457321    -19.865492    6.517663    -31.575848    52.275406    0.000000    0.000000    0.000000    -22.889473    -17.704014    -24.398470    8.543228    27.139318    -15.463643    3.911747    5.035507    -8.094031    0.000000    0.000000    0.000000    
-14.591427    152.092499    -98.147514    1.576664    -3.742748    44.240891    -1.884568    0.193926    0.492329    -0.598189    1.993397    0.173249    -2.272058    4.965571    -20.860725    17.256752    0.007945    -19.140982    2.511765    7.815228    -13.832236    -35.025341    22.966845    -47.536850    -3.482357    -24.998024    -121.512680    -7.002556    -29.872885    -11.945358    -0.989645    11.865237    -3.560625    30.783672    13.442089    46.643696    -7.822088    3.667592    62.688541    -15.748116    4.619441    27.093317    16.790710    -3.745468    -5.829801    -18.228138    39.437740    -19.862301    6.516150    -31.567972    52.286053    0.000000    0.000000    0.000000    -22.896637    -17.698475    -24.387312    8.552858    27.138323    -15.446842    3.909432    5.013157    -8.123575    0.000000    0.000000    0.000000    
-14.599284    152.094437    -98.143677    1.583443    -3.740778    44.251984    -1.852665    0.195447    0.496523    -0.661270    1.987497    0.175487    -2.277904    4.950634    -20.874781    17.266689    0.027105    -19.156395    2.510367    7.814986    -13.823499    -35.009861    22.980473    -47.543835    -3.471590    -25.016880    -121.519249    -7.032509    -29.871729    -11.954222    -1.122901    11.781467    -3.492644    30.315102    13.084951    46.478035    -7.513127    3.541274    62.741589    -15.377281    4.390769    27.159063    16.785887    -3.747337    -5.855161    -18.234390    39.432327    -19.842194    6.498889    -31.572521    52.273235    0.000000    0.000000    0.000000    -22.900030    -17.693941    -24.392744    8.544415    27.142260    -15.457731    3.919940    5.010808    -8.105969    0.000000    0.000000    0.000000    
-14.609805    152.096558    -98.135742    1.585917    -3.740336    44.263893    -1.832495    0.198324    0.505323    -0.706503    1.971800    0.179080    -2.285809    4.961606    -20.884037    17.296045    0.010034    -19.158979    2.507280    7.822153    -13.823888    -34.998131    22.982262    -47.548260    -3.467655    -25.017414    -121.520409    -7.041378    -29.864311    -11.976094    -1.244835    11.685669    -3.421538    29.876244    12.625347    46.349030    -7.676621    4.213723    62.426243    -16.152700    4.888593    27.522329    16.788357    -3.748411    -5.883116    -18.253357    39.414417    -19.832216    6.423859    -31.733360    52.379578    0.000000    0.000000    0.000000    -22.898102    -17.692179    -24.408848    8.540398    27.148552    -15.481960    3.915398    5.012131    -8.090963    0.000000    0.000000    0.000000    
